<svg xmlns="http://www.w3.org/2000/svg" viewBox="0 0 528.8 139.43"><defs><style>.cls-1,.cls-3{font-size:29px;font-family:ProductSans-Bold, Product Sans;}.cls-1,.cls-2,.cls-3,.cls-6{fill:#08726c;}.cls-1,.cls-2,.cls-3{font-weight:700;}.cls-1{letter-spacing:-0.01em;}.cls-2{font-size:76.73px;font-family:Poppins-Bold, Poppins;}.cls-3{letter-spacing:-0.01em;}.cls-4{fill:#06b5a7;}.cls-5{fill:#179c96;}.cls-7{fill:#169b94;}</style></defs><g id="Layer_2" data-name="Layer 2"><g id="Layer_1-2" data-name="Layer 1"><text class="cls-1" transform="translate(55.67 46.82)">K</text><text class="cls-2" transform="translate(157.74 92.93)">Keystone</text><text class="cls-3" transform="translate(23.61 103.69)">B</text><text class="cls-3" transform="translate(90.54 103.69)">B</text><polygon class="cls-4" points="0.01 113.48 65.58 113.48 32.8 132.41 0.01 113.48"/><polygon class="cls-4" points="32.81 56.7 0.01 113.48 0.01 75.63 32.8 56.7 32.8 18.93 65.58 0.01 43.73 37.81 32.81 56.7"/><polygon class="cls-4" points="65.58 113.48 131.15 113.48 98.36 132.41 65.58 113.48"/><polygon class="cls-4" points="131.15 75.63 131.15 113.48 65.58 0.01 98.36 18.93 98.36 56.7 131.15 75.63"/><polygon class="cls-4" points="32.8 56.7 65.58 113.48 98.36 56.7 32.8 56.7"/><polygon class="cls-5" points="43.73 37.81 32.81 56.7 32.8 56.7 32.8 18.93 43.73 37.81"/><polygon class="cls-5" points="76.5 94.5 65.59 113.39 65.58 113.39 65.58 75.61 76.5 94.5"/><polygon class="cls-6" points="54.69 56.74 32.81 56.7 43.73 37.81 54.69 56.74"/><polygon class="cls-6" points="21.87 113.43 0 113.38 10.91 94.5 21.87 113.43"/><polygon class="cls-6" points="98.36 56.74 76.48 56.7 87.39 37.81 98.36 56.74"/><polygon class="cls-6" points="76.51 18.93 54.64 18.88 65.55 0 76.51 18.93"/><polygon class="cls-6" points="43.75 75.67 21.88 75.62 32.79 56.74 43.75 75.67"/><polygon class="cls-6" points="109.3 75.67 87.42 75.62 98.33 56.74 109.3 75.67"/><polygon class="cls-7" points="98.36 18.93 76.51 18.93 65.58 0.01 98.36 18.93"/><polygon class="cls-7" points="131.16 75.67 109.31 75.67 98.38 56.74 131.16 75.67"/><polygon class="cls-7" points="65.59 75.61 43.75 75.61 32.81 56.7 65.59 75.61"/><polygon class="cls-7" points="76.48 56.7 65.59 75.61 98.36 56.74 76.48 56.7"/><polygon class="cls-6" points="65.58 113.52 43.72 113.47 54.63 94.58 65.58 113.52"/><polygon class="cls-6" points="87.44 113.52 65.58 113.47 76.48 94.58 87.44 113.52"/><polygon class="cls-7" points="43.72 113.47 32.83 132.38 65.58 113.52 43.72 113.47"/><polygon class="cls-6" points="131.13 113.52 109.25 113.47 120.17 94.58 131.13 113.52"/><polygon class="cls-7" points="109.25 113.47 98.36 132.38 131.13 113.52 109.25 113.47"/></g></g></svg>